<?xml version="1.0" encoding="utf-8"?>
<!-- Generator: Adobe Illustrator 24.1.1, SVG Export Plug-In . SVG Version: 6.00 Build 0)  -->
<svg version="1.1" id="Layer_1" xmlns="http://www.w3.org/2000/svg" xmlns:xlink="http://www.w3.org/1999/xlink" x="0px" y="0px"
	 viewBox="0 0 512 512" style="enable-background:new 0 0 512 512;" xml:space="preserve">
<g>
	<path d="M401.6,509c-0.4,1.9-2.5,3-6,3h-66.9c-4,0-7.5-1.7-10.5-5.3L207.7,366.2l-30.9,29.3v109.1c0,5-2.4,7.5-7.4,7.5h-51.9
		c-5,0-7.5-2.5-7.5-7.5V7.5c0-4.9,2.5-7.5,7.5-7.5h51.9c5,0,7.4,2.6,7.4,7.5v306l132.3-133.7c3.6-3.6,7.1-5.3,10.6-5.3h69.1
		c3.1,0,5.1,1.2,6.1,3.8c1,3.2,0.8,5.4-0.8,6.7L254.3,320.3l145.8,181.5c2,2.3,2.5,4.4,1.5,7.7L401.6,509z"/>
</g>
</svg>
